<svg width="25" height="24" fill="none" xmlns="http://www.w3.org/2000/svg"><path d="M12.5 0C5.5 0 0 5.5 0 12.3c0 5.4 3.6 10 8.5 11.7.7 0 .9-.3.9-.6v-2.1c-3.5.7-4.2-1.7-4.2-1.7-.6-1.4-1.4-1.8-1.4-1.8-1.1-.7 0-.7 0-.7 1.3 0 2 1.3 2 1.3 1.1 1.8 3 1.3 3.6 1 .1-.8.5-1.3.8-1.7-2.8-.3-5.7-1.3-5.7-6 0-1.4.5-2.5 1.3-3.3C5.7 8 5.2 6.8 6 5c0 0 1-.3 3.5 1.3a12.2 12.2 0 016.2 0C18 4.8 19 5 19 5c.7 1.7.3 3 .2 3.3.8.8 1.2 2 1.2 3.3 0 4.7-2.9 5.7-5.7 6 .5.4.9 1.2.9 2.3v3.4c0 .3.2.7.8.6 5-1.7 8.6-6.3 8.6-11.7C25 5.5 19.4 0 12.5 0z"/></svg>